<svg width="204" height="110" viewBox="0 0 204 110" fill="none" xmlns="http://www.w3.org/2000/svg">
<rect width="203.636" height="110" fill="url(#paint0_linear_33_219)"/>
<path d="M93.1614 83H90.5535V23.0185H93.1614V83ZM87.9457 83H85.3378V23.0185H87.9457V83ZM82.7299 83H80.122V23.0185H82.7299V83ZM77.5141 83H74.9062V23.0185H77.5141V83ZM112.214 53.0093L127.535 23.0185H130.433L115.111 53.0093L130.433 83H127.535L112.214 53.0093ZM106.382 53.0093L121.703 23.0185H124.601L109.28 53.0093L124.601 83H121.703L106.382 53.0093ZM100.55 53.0093L115.872 23.0185H118.769L103.448 53.0093L118.769 83H115.872L100.55 53.0093ZM94.6827 53.0093L110.04 23.0185H112.938L97.5804 53.0093L112.938 83H110.04L94.6827 53.0093Z" fill="#242CC2"/>
<defs>
<linearGradient id="paint0_linear_33_219" x1="156.364" y1="-7.66772e-07" x2="132.337" y2="127.11" gradientUnits="userSpaceOnUse">
<stop stop-color="#1E694B"/>
<stop offset="1" stop-color="#7DB9D3" stop-opacity="0.87"/>
</linearGradient>
</defs>
</svg>
