<svg width="204" height="110" viewBox="0 0 204 110" fill="none" xmlns="http://www.w3.org/2000/svg">
<rect width="203.636" height="110" fill="black"/>
<path d="M87.9453 67.3523V38.6648C87.9453 38.6648 93.8736 38.6648 105.73 38.6648C108.604 38.6648 111.067 40.0774 113.119 42.9027C115.196 45.7038 116.234 49.0724 116.234 53.0085C116.234 56.9687 115.196 60.3494 113.119 63.1506C111.067 65.9517 108.604 67.3523 105.73 67.3523H87.9453ZM90.5533 64.7443H105.73C107.879 64.7443 109.714 63.5973 111.236 61.3033C112.781 59.0092 113.554 56.2443 113.554 53.0085C113.554 49.7486 112.781 46.9837 111.236 44.7138C109.714 42.4197 107.879 41.2727 105.73 41.2727H90.5533V64.7443ZM85.3374 69.9602H105.73C109.328 69.9602 112.419 68.3061 115.003 64.9979C117.611 61.6655 118.915 57.669 118.915 53.0085C118.915 49.9418 118.311 47.1044 117.104 44.4964C115.92 41.8885 114.315 39.8359 112.286 38.3388C110.282 36.8175 108.097 36.0568 105.73 36.0568H85.3374V69.9602ZM82.7294 72.5682V33.4489H105.73C108.555 33.4489 111.188 34.3182 113.626 36.0568C116.065 37.7955 117.997 40.174 119.422 43.1925C120.871 46.1868 121.595 49.4588 121.595 53.0085C121.595 56.5341 120.871 59.8061 119.422 62.8246C117.997 65.843 116.065 68.2216 113.626 69.9602C111.188 71.6989 108.555 72.5682 105.73 72.5682H82.7294ZM80.1215 75.1761H105.73C109.038 75.1761 112.105 74.1861 114.93 72.206C117.78 70.2259 120.05 67.5334 121.74 64.1285C123.43 60.7237 124.276 57.017 124.276 53.0085C124.276 49.0241 123.43 45.3295 121.74 41.9247C120.05 38.4957 117.78 35.7912 114.93 33.8111C112.081 31.831 109.014 30.8409 105.73 30.8409H80.1215V75.1761ZM77.5135 77.7841V28.233H105.73C109.497 28.233 113.011 29.3437 116.271 31.5653C119.531 33.7628 122.126 36.7692 124.058 40.5845C125.99 44.3999 126.956 48.5412 126.956 53.0085C126.956 57.4759 125.99 61.6172 124.058 65.4325C122.126 69.2479 119.531 72.2663 116.271 74.4879C113.011 76.6854 109.497 77.7841 105.73 77.7841H77.5135ZM74.9055 80.392H105.73C108.893 80.392 111.948 79.6676 114.894 78.2187C117.84 76.7699 120.388 74.826 122.537 72.3871C124.686 69.9482 126.401 67.0384 127.68 63.6577C128.984 60.2528 129.636 56.7031 129.636 53.0085C129.636 49.3139 128.984 45.7763 127.68 42.3956C126.401 39.0149 124.686 36.1051 122.537 33.6662C120.388 31.2031 117.84 29.2472 114.894 27.7983C111.948 26.3494 108.893 25.625 105.73 25.625H74.9055V80.392ZM105.73 83H72.2976V23.017H105.73C110.439 23.017 114.834 24.3572 118.915 27.0376C122.996 29.718 126.244 33.3643 128.658 37.9766C131.097 42.5888 132.317 47.5994 132.317 53.0085C132.317 57.0653 131.592 60.9531 130.143 64.6719C128.719 68.3665 126.811 71.554 124.42 74.2344C122.03 76.9148 119.192 79.0518 115.908 80.6456C112.648 82.2152 109.256 83 105.73 83Z" fill="white"/>
</svg>
