<svg width="204" height="110" viewBox="0 0 204 110" fill="none" xmlns="http://www.w3.org/2000/svg">
<rect width="203.636" height="110" fill="url(#paint0_linear_33_225)"/>
<path d="M87.9457 67.3527V38.6659C87.9457 38.6659 93.8738 38.6659 105.73 38.6659C108.604 38.6659 111.067 40.0785 113.119 42.9037C115.196 45.7047 116.234 49.0733 116.234 53.0093C116.234 56.9694 115.196 60.35 113.119 63.1511C111.067 65.9521 108.604 67.3527 105.73 67.3527H87.9457ZM90.5535 64.7448H105.73C107.879 64.7448 109.714 63.5978 111.236 61.3038C112.781 59.0098 113.554 56.245 113.554 53.0093C113.554 49.7494 112.781 46.9845 111.236 44.7147C109.714 42.4207 107.879 41.2737 105.73 41.2737H90.5535V64.7448ZM85.3378 69.9605H105.73C109.328 69.9605 112.419 68.3065 115.003 64.9983C117.61 61.666 118.914 57.6697 118.914 53.0093C118.914 49.9426 118.311 47.1053 117.103 44.4974C115.92 41.8895 114.314 39.837 112.286 38.3399C110.282 36.8186 108.096 36.058 105.73 36.058H85.3378V69.9605ZM82.7299 72.5684V33.4501H105.73C108.555 33.4501 111.187 34.3194 113.626 36.058C116.065 37.7966 117.997 40.1751 119.421 43.1934C120.87 46.1877 121.595 49.4596 121.595 53.0093C121.595 56.5347 120.87 59.8067 119.421 62.8251C117.997 65.8435 116.065 68.222 113.626 69.9605C111.187 71.6991 108.555 72.5684 105.73 72.5684H82.7299ZM80.122 75.1763H105.73C109.038 75.1763 112.105 74.1863 114.93 72.2062C117.779 70.2262 120.049 67.5338 121.74 64.129C123.43 60.7243 124.275 57.0177 124.275 53.0093C124.275 49.025 123.43 45.3305 121.74 41.9257C120.049 38.4968 117.779 35.7924 114.93 33.8123C112.081 31.8322 109.014 30.8422 105.73 30.8422H80.122V75.1763ZM77.5141 77.7842V28.2343H105.73C109.497 28.2343 113.01 29.3451 116.27 31.5666C119.53 33.764 122.126 36.7703 124.058 40.5856C125.989 44.4008 126.955 48.542 126.955 53.0093C126.955 57.4765 125.989 61.6177 124.058 65.433C122.126 69.2482 119.53 72.2666 116.27 74.4881C113.01 76.6855 109.497 77.7842 105.73 77.7842H77.5141ZM74.9062 80.3921H105.73C108.893 80.3921 111.948 79.6677 114.894 78.2189C117.84 76.77 120.387 74.8262 122.536 72.3873C124.686 69.9485 126.4 67.0387 127.68 63.6581C128.984 60.2534 129.636 56.7038 129.636 53.0093C129.636 49.3147 128.984 45.7772 127.68 42.3966C126.4 39.016 124.686 36.1063 122.536 33.6674C120.387 31.2044 117.84 29.2485 114.894 27.7996C111.948 26.3508 108.893 25.6264 105.73 25.6264H74.9062V80.3921ZM105.73 83H72.2983V23.0185H105.73C110.439 23.0185 114.833 24.3587 118.914 27.039C122.995 29.7193 126.243 33.3656 128.658 37.9777C131.097 42.5898 132.316 47.6003 132.316 53.0093C132.316 57.066 131.592 60.9537 130.143 64.6723C128.718 68.3668 126.81 71.5543 124.42 74.2346C122.029 76.9149 119.192 79.0519 115.908 80.6457C112.648 82.2152 109.256 83 105.73 83Z" fill="#7CDAD2"/>
<defs>
<linearGradient id="paint0_linear_33_225" x1="20" y1="1.56361e-07" x2="65.9762" y2="151.717" gradientUnits="userSpaceOnUse">
<stop stop-color="#9A759E"/>
<stop offset="1" stop-color="#6170B7"/>
</linearGradient>
</defs>
</svg>
